<svg xmlns="http://www.w3.org/2000/svg" width="111.725" height="46.421" viewBox="0 0 111.725 46.421">
  <g id="Group_44299" data-name="Group 44299" transform="translate(-170 -22)">
    <path id="Path_1" data-name="Path 1" d="M804.687,270.533a20.391,20.391,0,0,1-3.778.3c.054-.207-1.883,3.529-1.907,3.26.059-.2,2.121,3.286,1.966,3.634a18.485,18.485,0,0,1,3.59-.061c.313-.319,2.129-3.765,2.128-3.59C806.717,274.378,804.807,270.658,804.687,270.533Z" transform="translate(-524.963 -229.435)" fill="#33b6ff" fill-rule="evenodd"/>
    <g id="Group_1" data-name="Group 1" transform="translate(210.591 31.887)">
      <path id="Path_2" data-name="Path 2" d="M486.354,231.255A51.643,51.643,0,0,0,490.111,235a22.42,22.42,0,0,1-3.25,3.958c-.049-.074-1.319-1.384-3.559-3.873a18.264,18.264,0,0,1-1.481,1.669c.133,1.144.184,1.97.327,2.648a20.521,20.521,0,0,0-4.456.732,116.692,116.692,0,0,1-1.254-14.8,10.039,10.039,0,0,1,4.832-.92c-.179,1.635.114,3.417.087,4.76,1.16-1.187,2.46-3.392,4.2-5.472a15.385,15.385,0,0,1,3.708,2.511C489.335,226.671,488.093,228.406,486.354,231.255Z" transform="translate(-476.438 -223.702)" fill="#fff"/>
    </g>
    <g id="Group_2" data-name="Group 2" transform="translate(263.568 48.42)">
      <path id="Path_3" data-name="Path 3" d="M755.981,307.758a13.285,13.285,0,0,1-.064,4.094s-5.678.506-5.678.612c-.068-.236-.153,1.372-.139,1.283.034-.135,5.6-.649,5.785-.634a34.3,34.3,0,0,0-.135,3.762c-.265.279-2.052.279-5.436.786-.047-.265-.161,1.108-.172,1.165a40.932,40.932,0,0,1,5.987-.46,23.867,23.867,0,0,1-.047,3.723c-2.376.254-5.858.76-10.246.909-.083-4.419-.136-9.122.124-14.286C749.709,308.378,753.1,307.866,755.981,307.758Z" transform="translate(-745.768 -307.758)" fill="#fff"/>
    </g>
    <g id="Group_3" data-name="Group 3" transform="translate(225.779 30.544)">
      <path id="Path_4" data-name="Path 4" d="M558.218,216.876c.7,4.617,1.1,9.208,1.755,14.053a10.942,10.942,0,0,1-4.394.876c-.562-3.2-1.263-7.914-1.926-13.992A13.749,13.749,0,0,1,558.218,216.876Z" transform="translate(-553.652 -216.876)" fill="#fff"/>
    </g>
    <g id="Group_4" data-name="Group 4" transform="translate(234.308 32.277)">
      <path id="Path_5" data-name="Path 5" d="M597.827,226.5a9.524,9.524,0,0,1,4.724-.806,7.134,7.134,0,0,1,5.918,2.264,10.526,10.526,0,0,1,1.032,4.221,16.887,16.887,0,0,1-2.252,6.156c-1.348,1.48-3.484,1.915-5.686,2.234a14.182,14.182,0,0,1-4.548-.357A116.47,116.47,0,0,1,597.827,226.5Zm3.38,9.522a3.868,3.868,0,0,0,3.6-1.543,4.47,4.47,0,0,0-.069-3.556c-.515-.554-1.556-.782-3.117-.695C601.355,232.178,601.273,234.093,601.206,236.026Z" transform="translate(-597.015 -225.691)" fill="#fff"/>
    </g>
    <g id="Group_5" data-name="Group 5" transform="translate(248.237 30.488)">
      <path id="Path_6" data-name="Path 6" d="M668.012,217.71a8.886,8.886,0,0,1,4.47-.914,5.726,5.726,0,0,1,6.088,1.855,6.6,6.6,0,0,1,1.314,3.9,11.767,11.767,0,0,1-1.9,6.445c-1.144,1.415-3.113,2.12-5.543,2.58a29.59,29.59,0,0,1-4.415-.053A125.043,125.043,0,0,1,668.012,217.71Zm3.944,9.29a3.716,3.716,0,0,0,3.429-1.693,4.036,4.036,0,0,0-.285-3.556c-.512-.612-1.573-.758-3.152-.593C671.886,223.163,671.915,225.05,671.956,227Z" transform="translate(-667.827 -216.59)" fill="#fff"/>
    </g>
    <g id="Group_6" data-name="Group 6" transform="translate(261.081 32.305)">
      <path id="Path_7" data-name="Path 7" d="M745.293,226.512a14.1,14.1,0,0,1-.794,3.988c.063-.15-5.707-.564-5.817-.611.131.012-.248,1.443-.2,1.541a28.071,28.071,0,0,1,5.813.334c-.054-.134-.572,3.794-.823,3.776,0,.072-1.973-.154-5.309-.317.005-.2-.317,1.259-.422.982,3.721.354,5.794.456,6.067.571a24.183,24.183,0,0,1-.833,3.674,40.437,40.437,0,0,1-9.852-.621,128.6,128.6,0,0,1,2-14C739.051,225.982,742.571,225.886,745.293,226.512Z" transform="translate(-733.121 -225.831)" fill="#fff"/>
    </g>
    <g id="Group_7" data-name="Group 7" transform="translate(209.198 49.586)">
      <path id="Path_8" data-name="Path 8" d="M469.365,314.931a10.3,10.3,0,0,1,4.724-1.183c3.191-.266,5.42.276,6.337,1.954.824,1.834.285,3.167-1.364,4.772,1.866.695,2.659,1.62,2.713,2.862a6.444,6.444,0,0,1-1.16,2.8c-.268.312-.606.557-1,.958a15.378,15.378,0,0,1-6.509,1.374,6.837,6.837,0,0,1-3.465.2C469.358,324.026,469.333,319.418,469.365,314.931Zm3.838,9.941c2.379.052,3.538-.453,3.471-1.56a1.157,1.157,0,0,0-.989-.852,7.226,7.226,0,0,0-2.547.4C473.19,323.584,473.175,324.216,473.2,324.872Zm.032-5.443c1.98-.029,2.91-.462,2.784-1.341a.95.95,0,0,0-.749-.819,6.4,6.4,0,0,0-2.119.24C473.2,318.15,473.193,318.756,473.235,319.429Z" transform="translate(-469.354 -313.684)" fill="#fff"/>
    </g>
    <g id="Group_8" data-name="Group 8" transform="translate(222.714 50.318)">
      <path id="Path_9" data-name="Path 9" d="M550.528,324.95c-.468,3.378-1.914,5.865-4.5,7.094a5.487,5.487,0,0,1-3.812.248c-1.9-.2-3.424-2.2-4.143-5.613a38.893,38.893,0,0,1,.464-8.162c1.014-.177,2.381-.4,4.059-.561a62.966,62.966,0,0,0,.282,8.544c.236.647.757.829,1.421,1.064a1.864,1.864,0,0,0,1.51-1.538,39.657,39.657,0,0,0,.127-8.46,21.192,21.192,0,0,1,4.32-.07C550.558,320.208,550.456,322.632,550.528,324.95Z" transform="translate(-538.069 -317.408)" fill="#fff"/>
    </g>
    <g id="Group_9" data-name="Group 9" transform="translate(237.102 49.325)">
      <path id="Path_10" data-name="Path 10" d="M611.514,313.439c.678-.521,2.107-.732,4.447-1a6.819,6.819,0,0,1,6.046,2.167c.938.819,1.213,2.036,1.334,4.036a10.841,10.841,0,0,1-1.922,6.276,10.477,10.477,0,0,1-5.4,2.458,11.676,11.676,0,0,1-4.709.092A131.075,131.075,0,0,1,611.514,313.439Zm3.887,9.386c1.7-.063,2.822-.591,3.422-1.727a3.9,3.9,0,0,0-.3-3.433c-.467-.636-1.569-.867-3.147-.54C615.362,319.017,615.308,321.042,615.4,322.825Z" transform="translate(-611.217 -312.36)" fill="#fff"/>
    </g>
    <g id="Group_10" data-name="Group 10" transform="translate(250.359 48.686)">
      <path id="Path_11" data-name="Path 11" d="M678.662,310.174c.97-.595,2.247-.525,4.725-1.047a6.43,6.43,0,0,1,5.892,2.346c.822.629,1.21,1.648,1.324,3.845a11.032,11.032,0,0,1-1.952,6.162,9.164,9.164,0,0,1-5.423,2.615,12.424,12.424,0,0,1-4.416-.2C678.553,319.581,678.594,315.08,678.662,310.174Zm4.027,9.362c1.79-.093,2.865-.51,3.508-1.745a3.771,3.771,0,0,0-.346-3.363c-.5-.71-1.569-1.018-3.149-.614C682.641,315.657,682.692,317.735,682.689,319.536Z" transform="translate(-678.611 -309.109)" fill="#fff"/>
    </g>
    <path id="Path_12" data-name="Path 12" d="M453.7,197.388c.179-.126-3.8,2.871-3.886,2.843a28.909,28.909,0,0,0-2.606-4.286c.056.249,4.136-2.464,4.135-2.35C451.2,193.359,453.892,197.5,453.7,197.388Z" transform="translate(-242.363 -167.623)" fill="#ff642e" fill-rule="evenodd"/>
    <path id="Path_13" data-name="Path 13" d="M771.683,204.387c.086-.061-1.822,1.378-1.865,1.364a13.881,13.881,0,0,0-1.251-2.057c.027.119,1.985-1.183,1.985-1.128C770.485,202.453,771.777,204.441,771.683,204.387Z" transform="translate(-500.514 -174.833)" fill="#c4c4c4" fill-rule="evenodd"/>
    <path id="Path_14" data-name="Path 14" d="M554.734,183.907c.16.281-8.3-1.774-8.173-1.986-.008.134,5.365-3.928,5.16-4.247C551.926,177.8,554.894,184.181,554.734,183.907Z" transform="translate(-322.176 -154.842)" fill="#7dd34a" fill-rule="evenodd"/>
    <path id="Path_15" data-name="Path 15" d="M667.3,298.858a26.273,26.273,0,0,1-3.343,2.871,16.372,16.372,0,0,0-.249-3.489C663.829,298.193,667.468,298.874,667.3,298.858Z" transform="translate(-416.284 -251.691)" fill="#ff642e" fill-rule="evenodd"/>
    <path id="Path_16" data-name="Path 16" d="M716.99,173.442a15.926,15.926,0,0,0,.329,3.022,23.49,23.49,0,0,0,2.847,1.494,10.972,10.972,0,0,0-2.679,1.212c-.05-.027-.508,3.027-.671,3.19a19.456,19.456,0,0,0-2.124-2.365,21.017,21.017,0,0,0-2.919.616c-.009-.207,1.553-2.559,1.4-2.864.091.389-1.256-2.5-1.311-2.58-.012.08,2.966.5,2.877.72C714.7,175.812,716.795,173.643,716.99,173.442Z" transform="translate(-454.885 -151.442)" fill="#d654ed" fill-rule="evenodd"/>
    <path id="Path_17" data-name="Path 17" d="M446.658,245.513a.451.451,0,0,1,.363-.733,3.374,3.374,0,0,0,.633-.015,3.147,3.147,0,0,0,.441-.552.454.454,0,0,1,.8.122,2.237,2.237,0,0,0,.212.549c-.009.012.369.132.765.263a.451.451,0,0,1,.108.8c-.173.114-.341.229-.462.318a.45.45,0,0,0-.187.378,8.767,8.767,0,0,0,.106,1.362c-.111-.011-1.243-1.015-1.418-.957.1-.009-.223.1-.594.218a.453.453,0,0,1-.564-.583c.05-.138.1-.27.143-.376a.446.446,0,0,0-.07-.461C446.853,245.754,446.757,245.636,446.658,245.513Z" transform="translate(-241.844 -208.138)" fill="#c4c4c4" fill-rule="evenodd"/>
    <path id="Path_18" data-name="Path 18" d="M545.335,293.335a2.338,2.338,0,0,1-2.685,2.52,2.739,2.739,0,0,1-2.7-2.447c.427-1.26,1.228-2.661,2.708-2.611C544.246,290.972,545.357,291.925,545.335,293.335Z" transform="translate(-316.865 -245.712)" fill="#ffc10e" fill-rule="evenodd"/>
    <ellipse id="Ellipse_1" data-name="Ellipse 1" cx="1.35" cy="1.345" rx="1.35" ry="1.345" transform="translate(244.727 25.962)" fill="#c4c4c4"/>
    <ellipse id="Ellipse_2" data-name="Ellipse 2" cx="1.35" cy="1.345" rx="1.35" ry="1.345" transform="translate(275.193 52.598)" fill="#c4c4c4"/>
    <ellipse id="Ellipse_3" data-name="Ellipse 3" cx="0.899" cy="0.895" rx="0.899" ry="0.895" transform="translate(216.964 27.31)" fill="#c4c4c4"/>
    <g id="Group_28" data-name="Group 28" transform="translate(170 24.397)">
      <g id="Group_24" data-name="Group 24">
        <path id="Path_19" data-name="Path 19" d="M389.028,375.6s.236,1.576,3.4,1.011,4.623-1.038,3.826-2.07-3.8-1.482-3.8-1.482-2.313-.329-3.022.753A2,2,0,0,0,389.028,375.6Z" transform="translate(-365.577 -336.153)" fill="#c4c6c7" fill-rule="evenodd"/>
        <path id="Path_20" data-name="Path 20" d="M390.856,377.2s-1.709-2.741,1.477-3.164-2.461-.235-2.461-.235-2.375.122-2.375,1.167S388.366,377.28,390.856,377.2Z" transform="translate(-364.4 -336.752)" fill="#fff" fill-rule="evenodd"/>
        <path id="Path_21" data-name="Path 21" d="M303.718,387.494s-.6-1.463,1.952-1.756a19.209,19.209,0,0,1,5.48.369s1.358.737.786,1.952-2.707,1.976-3.274,1.976S304.411,389.533,303.718,387.494Z" transform="translate(-297.051 -346.317)" fill="#c4c6c7" fill-rule="evenodd"/>
        <path id="Path_22" data-name="Path 22" d="M303.083,387.861s4.419-1.415,7.866-.581l.589-.107-1.039-1.066-3.189-.444h-3.8l-.661,1.232Z" transform="translate(-296.4 -346.317)" fill="#fff" fill-rule="evenodd"/>
        <path id="Path_23" data-name="Path 23" d="M338.965,225.8q.077.124.148.248a2.362,2.362,0,0,0-.936,1.418c-.172,1.075.956,1.605,2.239,1.2.053.119.1.235.149.354.145.352.282.706.41,1.058a41.487,41.487,0,0,1,2.256,10.54,28.476,28.476,0,0,1-.227,8.563,6.3,6.3,0,0,1-.3.984v0a9.768,9.768,0,0,1-3.745,2.1l-.006-.015c-.047.015-4.55,1.31-8.332-6.448.2-.363.393-.726.576-1.08a39.383,39.383,0,0,0,2.313-5.393c.41-1.2,1.02-2.847.429-4.064-.813-1.673-3.25-1.437-4.722-1a12.453,12.453,0,0,0-1.791.7c-.756-6.078,1.045-8.714,1.359-9.116,0,0,0,0,0,0a4.689,4.689,0,0,1,6.156.343c.143.137.576.115.64-.109a3.071,3.071,0,0,1,2.124-2.058,14.3,14.3,0,0,1,1.02,1.394Q338.849,225.608,338.965,225.8Z" transform="translate(-315.998 -216.474)" fill="#fff"/>
        <path id="Path_24" data-name="Path 24" d="M352.938,243.935a1.27,1.27,0,0,1-1.8-.771,1.8,1.8,0,0,1,1.266-1.874,1.268,1.268,0,0,1,1.8.771A1.8,1.8,0,0,1,352.938,243.935Z" transform="translate(-335.172 -230.252)" fill="#9b9c9f"/>
        <path id="Path_25" data-name="Path 25" d="M366.98,263.771a6.769,6.769,0,0,0,2.381.677c.4.072,1.03.16,1.281.525.45.649-.559,1.319-1.595,1.8.025.025.049.049.072.074a4.3,4.3,0,0,1,1.31,1.932c.125,1.125-1.534.192-1.926.032-1.049-.431-2.112-.826-3.182-1.2-.714-.047-1.321-.273-1.245-.9.034-.28.338-.478.493-.676a7.639,7.639,0,0,0,.688-1.234c.322-.613.705-1.119,1.457-1.086a.328.328,0,0,1,.076.012s0,0,0,0A.392.392,0,0,1,366.98,263.771Z" transform="translate(-345.581 -248.349)" fill="#9b9c9f"/>
        <path id="Path_26" data-name="Path 26" d="M348.4,263.708a1.2,1.2,0,0,1-.305.655.372.372,0,0,1-.1.081.975.975,0,0,1-.707.1,2,2,0,0,1-.319-.11.5.5,0,0,1-.313-.518c0-.046,0-.088.006-.134a.849.849,0,0,1,.451-.728,1.462,1.462,0,0,1,.566-.19.517.517,0,0,1,.462.159.885.885,0,0,1,.264.685Z" transform="translate(-331.591 -247.666)" fill="#f39dc3" fill-rule="evenodd"/>
        <path id="Path_27" data-name="Path 27" d="M392.686,255.368a1.214,1.214,0,0,1-.719.091.372.372,0,0,1-.125-.045.97.97,0,0,1-.462-.542,2.024,2.024,0,0,1-.077-.328.5.5,0,0,1,.274-.54l.118-.066a.855.855,0,0,1,.859-.007,1.455,1.455,0,0,1,.463.376.511.511,0,0,1,.111.474.887.887,0,0,1-.442.586Z" transform="translate(-367.454 -240.406)" fill="#f39dc3" fill-rule="evenodd"/>
        <g id="Group_11" data-name="Group 11" transform="translate(10.541 39.115)">
          <path id="Path_28" data-name="Path 28" d="M323.662,384.485c.45.012.9.019,1.34.025.115,0,.23,0,.346,0C324.788,384.489,324.224,384.485,323.662,384.485Z" transform="translate(-323.662 -384.485)"/>
        </g>
        <path id="Path_29" data-name="Path 29" d="M333.264,217.443c-.814.3-1.548.734-1.51.521a3.953,3.953,0,0,1,1.938-1.035S334.076,217.146,333.264,217.443Z" transform="translate(-319.621 -210.773)" fill-rule="evenodd"/>
        <path id="Path_30" data-name="Path 30" d="M367.077,217.759c-.043.341-.591.262-1.31-.4-.051-.079,0-.079,0-.079S367.122,217.418,367.077,217.759Z" transform="translate(-346.926 -211.056)" fill-rule="evenodd"/>
        <path id="Path_31" data-name="Path 31" d="M410.7,265.16c-.021.273-.066.532-.089.689a19.809,19.809,0,0,1-2.22,6.008q-.181-1.637-.482-3.257c-.024-.134-.049-.267-.077-.4q-.329-1.7-.793-3.364c0-.017-.01-.032-.014-.049a11.355,11.355,0,0,1,1.791-.555c.4-.086,1.36-.352,1.7-.03a.507.507,0,0,1,.125.2A1.964,1.964,0,0,1,410.7,265.16Z" transform="translate(-380.083 -248.622)" fill="#c4c6c7"/>
        <path id="Path_32" data-name="Path 32" d="M298.93,273.09a10.342,10.342,0,0,1-1.457.732c-.385.162-.782.3-1.183.429l-.038.011a18.981,18.981,0,0,1-1.989.5,34.94,34.94,0,0,1-6.961.574c-.559-.023-1.124-.027-1.685-.027h0a19.05,19.05,0,0,1-5.755-.854,5.338,5.338,0,0,1-2.98-2.164,6.053,6.053,0,0,1-.554-3.01c-.162-6.346.478-12.748,3.207-18.5.274-.585.574-1.165.9-1.735.089-.156.176-.314.265-.474-1.187,3.016-2.356,8.07-1.825,15.787l.011.075c.282,2.07,1.034,7.572,3.947,8.618C285.806,274.123,289.488,275.448,298.93,273.09Z" transform="translate(-275.076 -236.192)" fill="#fff"/>
        <path id="Path_33" data-name="Path 33" d="M348.861,341.187a8.381,8.381,0,0,1-2.023.331,0,0,0,0,1,0,0,8.117,8.117,0,0,1-3.758-.743,6.1,6.1,0,0,1-1.4-.856,7.185,7.185,0,0,1-1.436-2.3c-.232-.448-.452-.9-.667-1.355.263-.367.5-.755.729-1.144.077-.132.151-.265.225-.4,3.783,7.758,8.285,6.463,8.332,6.448Z" transform="translate(-325.899 -305.397)" fill="#9b9c9f"/>
        <path id="Path_34" data-name="Path 34" d="M323.281,242.432c-.119.056-.238.115-.357.177q-.4.2-.782.431a21.866,21.866,0,0,1-.024-2.839,12.95,12.95,0,0,1,1.269-5.238s0-.007.006-.011a7.562,7.562,0,0,1,.574-.918,4.065,4.065,0,0,1,.672-.717C324.326,233.718,322.525,236.354,323.281,242.432Z" transform="translate(-311.853 -223.935)" fill="#9b9c9f"/>
        <path id="Path_35" data-name="Path 35" d="M330.953,248.616a5.991,5.991,0,0,1-.595,1.121,9.532,9.532,0,0,1-9.408.914,6.569,6.569,0,0,1-1.521-.935,7.4,7.4,0,0,1-1.517-2.4c-.157-.3-.31-.613-.459-.922a7.01,7.01,0,0,1-1.256,1.2c-.32.233-1.1-.284-.748-.54.051-.038.1-.075.153-.115l0,0c1.582-1.234,2.572-3.287,3.422-5.041a33.782,33.782,0,0,0,2.111-5.24,5.691,5.691,0,0,0,.349-2.523,1.168,1.168,0,0,0-.646-.871,4.277,4.277,0,0,0-2.772.079,14.683,14.683,0,0,0-4.618,2.461c-.313.241-1.1-.275-.748-.542.37-.284.758-.559,1.158-.82a20.485,20.485,0,0,1,.108-4.787c.3-2.045,1-4.45,2.7-5.793a5.639,5.639,0,0,1,6.662.118,3.77,3.77,0,0,1,2.3-1.889c.112.124.221.25.327.38a3.071,3.071,0,0,0-2.124,2.058c-.064.224-.5.247-.64.109a4.689,4.689,0,0,0-6.156-.343s0,0,0,0a4.069,4.069,0,0,0-.673.717,7.584,7.584,0,0,0-.574.918s0,.007-.006.011a12.95,12.95,0,0,0-1.269,5.239,21.849,21.849,0,0,0,.024,2.839q.385-.229.782-.431c.119-.062.238-.12.357-.177a12.436,12.436,0,0,1,1.791-.7c1.472-.442,3.909-.677,4.722,1,.591,1.217-.019,2.866-.429,4.064a39.385,39.385,0,0,1-2.313,5.393c-.183.354-.374.717-.576,1.08-.074.132-.148.265-.225.4-.225.389-.467.777-.729,1.144.215.456.435.907.667,1.355a7.187,7.187,0,0,0,1.436,2.3,6.109,6.109,0,0,0,1.4.856,8.118,8.118,0,0,0,3.758.743,0,0,0,0,0,0,0,8.376,8.376,0,0,0,2.024-.331A9.768,9.768,0,0,0,330.953,248.616Z" transform="translate(-304.246 -214.922)"/>
        <path id="Path_36" data-name="Path 36" d="M301.717,240.858a6.57,6.57,0,0,1-1.521-.935,7.4,7.4,0,0,1-1.517-2.4c-.157-.3-.31-.613-.459-.922a7.013,7.013,0,0,1-1.256,1.2c-.32.233-1.1-.284-.748-.54,1.672-1.217,2.7-3.348,3.577-5.158a33.779,33.779,0,0,0,2.111-5.24,5.691,5.691,0,0,0,.349-2.523c-.287-1.483-2.371-1.1-3.418-.792a14.681,14.681,0,0,0-4.618,2.461c-.313.241-1.1-.275-.748-.542.37-.284.758-.559,1.158-.82a20.481,20.481,0,0,1,.108-4.787c.3-2.045,1-4.45,2.7-5.793a5.639,5.639,0,0,1,6.662.118,3.77,3.77,0,0,1,2.3-1.889,11.048,11.048,0,0,0-1.825-1.644h0c-.091-.038-.406-.188-.476-.216a7.879,7.879,0,0,0-1.385-.39,8.86,8.86,0,0,0-4.722.425,13.077,13.077,0,0,0-6.129,4.911c-.438.681-.833,1.408-1.228,2.122-1.187,3.016-2.356,8.07-1.825,15.787l.011.075c.282,2.07,1.033,7.572,3.947,8.618,2.982,1.07,6.664,2.4,16.105.037a7.069,7.069,0,0,0,2.258-2.083A9.531,9.531,0,0,1,301.717,240.858Zm2.137-29.5s1.355.135,1.31.476-.591.262-1.31-.4C303.8,211.355,303.854,211.355,303.854,211.355Zm-4.769-.069s.383.216-.429.514-1.548.734-1.51.521A3.953,3.953,0,0,1,299.085,211.285Z" transform="translate(-285.013 -205.128)" fill="#c4c6c7"/>
        <g id="Group_12" data-name="Group 12" transform="translate(15.94 10.927)">
          <path id="Path_37" data-name="Path 37" d="M352.938,243.935a1.27,1.27,0,0,1-1.8-.771,1.8,1.8,0,0,1,1.266-1.874,1.268,1.268,0,0,1,1.8.771A1.8,1.8,0,0,1,352.938,243.935Z" transform="translate(-351.112 -241.179)" fill-rule="evenodd"/>
          <ellipse id="Ellipse_4" data-name="Ellipse 4" cx="0.396" cy="0.528" rx="0.396" ry="0.528" transform="translate(1.567 0.379)" fill="#fff"/>
          <ellipse id="Ellipse_5" data-name="Ellipse 5" cx="0.152" cy="0.203" rx="0.152" ry="0.203" transform="translate(1.201 1.398)" fill="#fff"/>
        </g>
        <g id="Group_13" data-name="Group 13" transform="translate(22.162 9.271)">
          <path id="Path_38" data-name="Path 38" d="M385.15,235.634a1.515,1.515,0,0,1-.15.049c-1.283.4-2.411-.126-2.239-1.2a2.362,2.362,0,0,1,.935-1.418,3.692,3.692,0,0,1,.452-.3A21.233,21.233,0,0,1,385.15,235.634Z" transform="translate(-382.744 -232.76)" fill-rule="evenodd"/>
          <ellipse id="Ellipse_6" data-name="Ellipse 6" cx="0.362" cy="0.528" rx="0.362" ry="0.528" transform="translate(0.959 0.746)" fill="#fff"/>
          <ellipse id="Ellipse_7" data-name="Ellipse 7" cx="0.139" cy="0.203" rx="0.139" ry="0.203" transform="translate(0.625 1.765)" fill="#fff"/>
        </g>
        <g id="Group_18" data-name="Group 18" transform="translate(18.316 15.213)">
          <g id="Group_15" data-name="Group 15" transform="translate(0.432 2.131)">
            <path id="Path_39" data-name="Path 39" d="M366.564,275.947s3.548,1.223,5.187,1.993-.218-2.053-1.726-3.092S366.564,275.947,366.564,275.947Z" transform="translate(-366.333 -274.414)" fill="#f27421" fill-rule="evenodd"/>
            <g id="Group_14" data-name="Group 14">
              <path id="Path_40" data-name="Path 40" d="M371.644,277a4.519,4.519,0,0,0-1.377-2.032c-.024-.026-.049-.052-.075-.077-.078-.081-.155-.162-.237-.241s-.147-.139-.222-.206a2.231,2.231,0,0,0-1.361-.641,3.893,3.893,0,0,0-2.641,1.241c-.077.073-.149.146-.219.218-.03.029-.056.057-.083.087-.042.045-.048.071-.03.085a.031.031,0,0,0,.024.037c.284.1.566.2.851.3,1.125.4,2.244.813,3.346,1.267C370.031,277.2,371.776,278.186,371.644,277Zm-.421.352a25.161,25.161,0,0,0-3.891-1.611c-.175-.065-.342-.125-.5-.182l-.614-.221c-.131-.048-.24-.085-.32-.115.922-.938,2.2-1.52,3.334-.582l.008.006c.087.073.175.149.258.228s.153.142.227.218a8.29,8.29,0,0,1,.809.944C370.7,276.251,371.358,277.039,371.223,277.355Z" transform="translate(-365.389 -273.803)"/>
            </g>
          </g>
          <g id="Group_17" data-name="Group 17">
            <path id="Path_41" data-name="Path 41" d="M367.55,264.131a6.044,6.044,0,0,0,2.254.708c1.4.179,2.781.577-.24,2.109s-5.216.662-4.263-.2S366.388,263.976,367.55,264.131Z" transform="translate(-364.705 -263.896)" fill="#ffc012" fill-rule="evenodd"/>
            <g id="Group_16" data-name="Group 16">
              <path id="Path_42" data-name="Path 42" d="M370.1,264.3c-.264-.384-.93-.477-1.347-.552a7.124,7.124,0,0,1-2.5-.712.411.411,0,0,0-.2-.053s0,0,0,0a.343.343,0,0,0-.079-.012c-.791-.035-1.194.5-1.532,1.142a8.034,8.034,0,0,1-.724,1.3c-.163.208-.483.415-.518.71-.079.659.558.9,1.31.946a4.816,4.816,0,0,0,.59.006c.161,0,.318-.016.469-.032a7.158,7.158,0,0,0,1.027-.166,13.137,13.137,0,0,0,1.369-.483c.077-.032.155-.065.232-.1l.231-.1C369.515,265.688,370.576,264.984,370.1,264.3Zm-2.136,1.443s0,0,0,0c-.046.024-.127.059-.24.107l-.244.095a8.866,8.866,0,0,1-3.023.691.749.749,0,0,1-.336-.1.3.3,0,0,1-.057-.042.217.217,0,0,1-.036-.04.285.285,0,0,1-.062-.117.464.464,0,0,1-.008-.168c.02-.162.282-.332.385-.457a4.482,4.482,0,0,0,.507-.809c.24-.461.507-1.356,1.1-1.458a7.985,7.985,0,0,0,2.591.732c.2.034.887.081.936.36C369.56,265,368.2,265.625,367.967,265.744Z" transform="translate(-363.191 -262.969)"/>
            </g>
          </g>
        </g>
        <path id="Path_43" data-name="Path 43" d="M414.16,266.062c-.021.273-.066.532-.089.689a19.81,19.81,0,0,1-2.22,6.008q-.181-1.637-.482-3.257c-.011-.064-.024-.13-.036-.194a31.023,31.023,0,0,0,2.7-4.138.593.593,0,0,1,.068.134A1.963,1.963,0,0,1,414.16,266.062Z" transform="translate(-383.548 -249.524)" fill="#9b9c9f"/>
        <path id="Path_44" data-name="Path 44" d="M333.237,282.107a33.811,33.811,0,0,1-2.11,5.24c-.879,1.81-1.9,3.938-3.575,5.156.074-.171,4.877-11.173,5.294-13.835a1.186,1.186,0,0,1,.741.916A5.686,5.686,0,0,1,333.237,282.107Z" transform="translate(-316.246 -260.367)" fill="#9b9c9f"/>
        <path id="Path_45" data-name="Path 45" d="M296.1,238.263a7.465,7.465,0,0,0,1.02-1.118c1.616-2.186,1.559-5.4,1.523-7.98q-.02-1.459-.134-2.919a12.752,12.752,0,0,0,2.139-4.087c.437-1.2,1.255-3.178.756-4.472-.646-1.677-3.046-1.17-4.6-.625a21.828,21.828,0,0,0-4.727-8.966,11.866,11.866,0,0,0-1.6-1.4.711.711,0,0,0-.157-.113c-.043-.023-.085-.047-.129-.068l-.009,0c-5.466-2.88-12.032.982-14.828,5.79a38.538,38.538,0,0,0-3.2,6.516,40.161,40.161,0,0,0-1.986,12.347c-.072,2.856-.576,6.211,1.958,8.175a10.561,10.561,0,0,0,4.746,1.825,1.4,1.4,0,0,0-.58.69c-.667,1.9,2.447,3.43,3.83,3.7,1.84.356,4.69-.5,5.406-2.431a1.37,1.37,0,0,0-.563-1.62c.074,0,.149-.006.223-.01a29.487,29.487,0,0,0,6.366-.9,5.16,5.16,0,0,0,2.165,1.492,9.629,9.629,0,0,0,6.458-.231c1.23-.515,1.315-1.541.366-2.44C299.368,238.3,297.656,238.22,296.1,238.263Zm2.7-21.046c.4-.086,1.36-.352,1.7-.03a.392.392,0,0,1,.057.068.537.537,0,0,1,.068.132,1.963,1.963,0,0,1,.057.758c-.021.273-.066.532-.089.689a19.807,19.807,0,0,1-2.22,6.008q-.181-1.637-.482-3.257c-.011-.064-.024-.13-.036-.194s-.026-.137-.042-.205q-.329-1.7-.793-3.364c0-.017-.01-.032-.013-.049A11.354,11.354,0,0,1,298.8,217.218ZM284.475,243.2c-1.33,2.256-4.688,2.1-6.434.531-.573-.514-1.374-1.6-.412-2.109a3.253,3.253,0,0,1,1.03-.226,38.274,38.274,0,0,0,4.718.158h0C284.156,241.767,284.985,242.337,284.475,243.2Zm8-3.964c-.385.162-.782.3-1.183.429l-.038.011a18.985,18.985,0,0,1-1.989.5,34.931,34.931,0,0,1-6.961.574c-.115,0-.23,0-.346,0-.442-.006-.89-.013-1.339-.025h0a19.051,19.051,0,0,1-5.755-.854,5.338,5.338,0,0,1-2.98-2.164,6.054,6.054,0,0,1-.554-3.01c-.162-6.346.478-12.748,3.207-18.5.274-.585.574-1.165.9-1.735.089-.156.176-.314.265-.474.395-.715.79-1.441,1.228-2.122a13.077,13.077,0,0,1,6.129-4.911,8.859,8.859,0,0,1,4.722-.425,7.875,7.875,0,0,1,1.385.39c.07.028.385.179.476.216h0a11.048,11.048,0,0,1,1.825,1.644c.112.124.221.25.327.38a14.29,14.29,0,0,1,1.02,1.394q.122.186.238.378.077.124.148.248c.093.152.181.309.267.464q.215.387.408.783c.225.448.431.9.624,1.359l.005.013c.053.119.1.235.15.354.145.352.282.706.41,1.058a41.486,41.486,0,0,1,2.256,10.54,28.47,28.47,0,0,1-.227,8.563,6.291,6.291,0,0,1-.3.984v0a5.984,5.984,0,0,1-.6,1.121,7.07,7.07,0,0,1-2.258,2.083A10.335,10.335,0,0,1,292.471,239.238Zm3.3,2.423c-.987-.311-2.341-.982-1.391-2.2v0q.3-.161.584-.343l.112,0c.774.008,1.544-.094,2.318-.062.852.034,2.438.154,2.949.99C301.132,241.329,297.015,241.626,295.774,241.661Z" transform="translate(-270.074 -201.608)" fill-rule="evenodd"/>
        <g id="Group_19" data-name="Group 19" transform="translate(10.123 0.26)">
          <path id="Path_46" data-name="Path 46" d="M323.7,189.215l-1.374-2.161c-.186-.292-.936.1-.759.381l1.374,2.162c.186.292.936-.1.759-.381Z" transform="translate(-321.54 -186.95)"/>
        </g>
        <g id="Group_20" data-name="Group 20" transform="translate(5.685)">
          <path id="Path_47" data-name="Path 47" d="M304.448,189.157a25.055,25.055,0,0,0-4.753-3.5c-.248-.141-.924.346-.661.5a25.044,25.044,0,0,1,4.753,3.5c.2.184.906-.266.661-.5Z" transform="translate(-298.974 -185.628)"/>
        </g>
        <g id="Group_21" data-name="Group 21" transform="translate(6.388 3.111)">
          <path id="Path_48" data-name="Path 48" d="M305.378,202.316l-2.315-.844a.385.385,0,1,0-.23.734l2.315.844a.385.385,0,1,0,.23-.733Z" transform="translate(-302.55 -201.443)"/>
        </g>
        <g id="Group_22" data-name="Group 22" transform="translate(20.623 24.374)">
          <path id="Path_49" data-name="Path 49" d="M375.27,309.9a8.952,8.952,0,0,1-.348,6.563c-.046.1.6-.038.691-.24a9.059,9.059,0,0,0,.345-6.636c-.051-.156-.751.12-.687.313Z" transform="translate(-374.919 -309.543)" fill="#c4c6c7"/>
        </g>
        <g id="Group_23" data-name="Group 23" transform="translate(22.696 26.689)">
          <path id="Path_50" data-name="Path 50" d="M385.459,321.463v1.411c0,.154.754.134.754-.044v-1.411c0-.154-.754-.134-.754.044Z" transform="translate(-385.459 -321.315)" fill="#c4c6c7"/>
        </g>
      </g>
      <g id="Group_25" data-name="Group 25" transform="translate(7.765 19.596)">
        <path id="Path_51" data-name="Path 51" d="M329.338,291c-.051-.093-.3-.035-.5.165-.21.163-.375.479-.259.512.039.165.309.026.53-.178C329.329,291.283,329.4,291.086,329.338,291Z" transform="translate(-324.802 -289.837)" fill="#fff"/>
        <path id="Path_52" data-name="Path 52" d="M321.875,296.495c.043.123.279-.026.509-.17.213-.2.311-.458.206-.539-.078-.086-.247-.019-.513.177C321.913,296.16,321.818,296.386,321.875,296.495Z" transform="translate(-319.437 -293.685)" fill="#fff"/>
        <path id="Path_53" data-name="Path 53" d="M317.827,301.468c-.037-.1-.316,0-.556.206a.97.97,0,0,0-.24.507c.123.08.331-.033.567-.221C317.769,301.83,317.885,301.6,317.827,301.468Z" transform="translate(-315.559 -298.246)" fill="#fff"/>
        <path id="Path_54" data-name="Path 54" d="M310.292,305.69c-.029-.088-.288,0-.522.2-.175.179-.26.4-.2.473a.631.631,0,0,0,.513-.2C310.264,306.025,310.4,305.8,310.292,305.69Z" transform="translate(-309.551 -301.643)" fill="#fff"/>
        <path id="Path_55" data-name="Path 55" d="M318.212,306.866c-.082-.079-.3-.053-.5.185-.235.208-.4.448-.268.535.077.057.25.02.546-.216A.634.634,0,0,0,318.212,306.866Z" transform="translate(-315.851 -302.582)" fill="#fff"/>
        <path id="Path_56" data-name="Path 56" d="M318.906,294.824c-.035-.117-.293-.016-.5.161-.223.173-.342.454-.291.511.153.064.319,0,.609-.224C318.91,295.052,319,294.86,318.906,294.824Z" transform="translate(-316.425 -292.901)" fill="#fff"/>
        <path id="Path_57" data-name="Path 57" d="M330.688,285.957c.068.106.241.09.464-.124s.359-.492.2-.52c0-.12-.233-.059-.43.154C330.662,285.674,330.559,285.9,330.688,285.957Z" transform="translate(-326.486 -285.252)" fill="#fff"/>
        <path id="Path_58" data-name="Path 58" d="M329.112,297.017c.041.1.313.021.493-.15.177-.208.355-.434.257-.525-.058-.129-.273-.021-.594.206C329.162,296.705,329.032,296.95,329.112,297.017Z" transform="translate(-325.245 -294.116)" fill="#fff"/>
        <path id="Path_59" data-name="Path 59" d="M335.936,289.875a.755.755,0,0,0,.613-.229c.163-.144.3-.4.227-.535a.964.964,0,0,0-.84.764Z" transform="translate(-330.745 -288.348)" fill="#fff"/>
      </g>
      <g id="Group_26" data-name="Group 26" transform="translate(24.219 27.09)">
        <path id="Path_60" data-name="Path 60" d="M400.858,330.578c-.089-.005-.164.208-.139.452,0,.231.1.52.18.462.122.071.2-.2.176-.478S400.941,330.571,400.858,330.578Z" transform="translate(-399.237 -329.157)" fill="#c4c6c7"/>
        <path id="Path_61" data-name="Path 61" d="M399.474,338.921c.09.064.18-.167.266-.4.035-.26-.042-.486-.155-.471-.093,0-.167.137-.233.409C399.338,338.673,399.388,338.876,399.474,338.921Z" transform="translate(-398.141 -335.16)" fill="#c4c6c7"/>
        <path id="Path_62" data-name="Path 62" d="M398.776,344.361c-.072-.054-.231.157-.335.409a1,1,0,0,0-.014.483c.127.017.256-.159.372-.414C398.879,344.657,398.872,344.425,398.776,344.361Z" transform="translate(-397.379 -340.222)" fill="#c4c6c7"/>
        <path id="Path_63" data-name="Path 63" d="M393.7,350.577c-.043-.058-.232.08-.378.284-.111.171-.145.359-.084.412a.548.548,0,0,0,.4-.268C393.753,350.849,393.814,350.635,393.7,350.577Z" transform="translate(-393.204 -345.212)" fill="#c4c6c7"/>
        <path id="Path_64" data-name="Path 64" d="M400.643,348.3c-.1-.023-.245.107-.351.39-.127.276-.231.536-.092.562.073.016.234-.076.414-.422A.6.6,0,0,0,400.643,348.3Z" transform="translate(-398.771 -343.39)" fill="#c4c6c7"/>
        <path id="Path_65" data-name="Path 65" d="M396.741,339.408c-.081-.05-.2.142-.246.345-.069.208-.023.443.036.46.135-.023.228-.143.319-.433C396.867,339.546,396.819,339.382,396.741,339.408Z" transform="translate(-395.82 -336.243)" fill="#c4c6c7"/>
        <path id="Path_66" data-name="Path 66" d="M397.954,327.549c.106,0,.17-.132.119-.394-.068-.253-.216-.464-.294-.354-.087-.038-.133.155-.059.374C397.748,327.446,397.853,327.612,397.954,327.549Z" transform="translate(-396.802 -326.099)" fill="#c4c6c7"/>
        <path id="Path_67" data-name="Path 67" d="M404.363,334.215c.076.039.212-.21.213-.465-.019-.275-.072-.558-.183-.535-.114-.032-.149.2-.2.577C404.222,333.969,404.275,334.224,404.363,334.215Z" transform="translate(-402.03 -331.273)" fill="#c4c6c7"/>
        <path id="Path_68" data-name="Path 68" d="M402.925,324.435a.769.769,0,0,0,.067-.645c-.054-.215-.214-.452-.342-.436a1,1,0,0,0,.012.579A.951.951,0,0,0,402.925,324.435Z" transform="translate(-400.763 -323.353)" fill="#c4c6c7"/>
      </g>
      <g id="Group_27" data-name="Group 27" transform="translate(7.371 10.546)">
        <path id="Path_69" data-name="Path 69" d="M313.9,245.277c-.085-.052-.282.139-.355.43-.1.266-.069.631.044.584.12.109.262-.169.348-.463S313.993,245.314,313.9,245.277Z" transform="translate(-312.315 -244.083)" fill="#9b9c9f"/>
        <path id="Path_70" data-name="Path 70" d="M310.893,254.632c.106.059.188-.223.27-.493.046-.3-.032-.567-.157-.561-.113-.016-.2.154-.294.5C310.713,254.353,310.779,254.594,310.893,254.632Z" transform="translate(-310.089 -250.757)" fill="#9b9c9f"/>
        <path id="Path_71" data-name="Path 71" d="M311.393,261.09c-.093-.046-.22.242-.238.576a.934.934,0,0,0,.2.535c.132-.048.185-.287.211-.594C311.595,261.387,311.52,261.14,311.393,261.09Z" transform="translate(-310.445 -256.788)" fill="#9b9c9f"/>
        <path id="Path_72" data-name="Path 72" d="M309.771,270.238c-.086-.032-.165.254-.139.589.051.269.18.473.273.461a.772.772,0,0,0,.111-.578C310.009,270.471,309.913,270.218,309.771,270.238Z" transform="translate(-309.217 -264.139)" fill="#9b9c9f"/>
        <path id="Path_73" data-name="Path 73" d="M315.535,264.4c-.105.009-.24.188-.192.5,0,.311.089.584.231.526.093-.029.155-.183.174-.546A.616.616,0,0,0,315.535,264.4Z" transform="translate(-313.802 -259.449)" fill="#9b9c9f"/>
        <path id="Path_74" data-name="Path 74" d="M307.838,255.231c-.1-.07-.236.207-.276.507s.043.626.117.627c.151-.075.221-.256.3-.647C307.973,255.412,307.928,255.194,307.838,255.231Z" transform="translate(-307.546 -252.077)" fill="#9b9c9f"/>
        <path id="Path_75" data-name="Path 75" d="M312.612,240.223c.105.053.253-.058.36-.369s.134-.63-.018-.579c-.048-.11-.236.067-.336.37C312.464,239.985,312.469,240.244,312.612,240.223Z" transform="translate(-311.529 -239.242)" fill="#9b9c9f"/>
        <path id="Path_76" data-name="Path 76" d="M316.8,250.42c.089.046.252-.173.3-.4.024-.258.056-.53-.07-.549-.113-.07-.241.132-.374.5C316.66,250.155,316.7,250.42,316.8,250.42Z" transform="translate(-314.868 -247.445)" fill="#9b9c9f"/>
        <path id="Path_77" data-name="Path 77" d="M319.141,240.95a.831.831,0,0,0,.437-.473c.086-.19.119-.46,0-.553a.8.8,0,0,0-.394.444A.719.719,0,0,0,319.141,240.95Z" transform="translate(-316.826 -239.79)" fill="#9b9c9f"/>
      </g>
    </g>
  </g>
</svg>
